<svg xmlns="http://www.w3.org/2000/svg" x="0px" y="0px"
width="100" height="100"
viewBox="0 0 172 172"
style=" fill:#000000;"><g fill="none" fillRule="nonzero" stroke="none" strokeWidth="1" strokeLinecap="butt" strokeLinejoin="miter" strokeMiterlimit="10" strokeDasharray="" strokeDashoffset="0" fontFamily="none" fontWeight="none" fontSize="none" textAnchor="none" style="mix-blend-mode: normal"><path d="M0,172v-172h172v172z" fill="none"></path><g fill="#ec4b4b"><path d="M21.5,29.5625v56.4375c0,0 10.75,8.0625 26.875,8.0625c0.63615,0 1.24956,-0.03363 1.86865,-0.05774c4.71514,20.74194 -17.99365,45.74524 -17.99365,45.74524l10.75,10.75c0,0 32.25,-29.5625 32.25,-64.5v-56.4375h-26.875zM96.75,29.5625v56.4375c0,0 10.75,8.0625 26.875,8.0625c0.63615,0 1.24956,-0.03363 1.86865,-0.05774c4.71514,20.74194 -17.99365,45.74524 -17.99365,45.74524l10.75,10.75c0,0 32.25,-29.5625 32.25,-64.5v-56.4375h-26.875z"></path></g></g></svg>